<?xml version="1.0" encoding="UTF-8" standalone="no"?>
<!-- Created with Inkscape (http://www.inkscape.org/) -->

<svg
   version="1.1"
   id="svg1"
   width="800"
   height="800"
   viewBox="0 0 800 800"
   sodipodi:docname="Generated Image January 22, 2026 - 2_32PM.svg"
   inkscape:version="1.4.2 (f4327f4, 2025-05-13)"
   xmlns:inkscape="http://www.inkscape.org/namespaces/inkscape"
   xmlns:sodipodi="http://sodipodi.sourceforge.net/DTD/sodipodi-0.dtd"
   xmlns="http://www.w3.org/2000/svg"
   xmlns:svg="http://www.w3.org/2000/svg">
  <defs
     id="defs1" />
  <sodipodi:namedview
     id="namedview1"
     pagecolor="#ffffff"
     bordercolor="#000000"
     borderopacity="0.25"
     inkscape:showpageshadow="2"
     inkscape:pageopacity="0.0"
     inkscape:pagecheckerboard="0"
     inkscape:deskcolor="#d1d1d1"
     inkscape:zoom="1.45875"
     inkscape:cx="400.34276"
     inkscape:cy="400"
     inkscape:window-width="2560"
     inkscape:window-height="1369"
     inkscape:window-x="1912"
     inkscape:window-y="-8"
     inkscape:window-maximized="1"
     inkscape:current-layer="g16" />
  <g
     inkscape:groupmode="layer"
     inkscape:label="Image"
     id="g1">
    <g
       id="g16">
      <path
         style="fill:#bf9e3d"
         d="m 260.99843,688.45 c -0.004,-2.477 46.52363,-94.45 47.7808,-94.45 0.76822,0 5.06967,1.61788 9.55877,3.5953 4.4891,1.97741 12.292,5.31711 17.33978,7.42155 l 9.17778,3.82625 1.80333,-5.01489 c 1.70551,-4.74287 1.96708,-4.98746 4.82222,-4.50932 1.66039,0.27806 4.20346,0.9638 5.65127,1.52387 l 2.63237,1.0183 -2.07955,8.53896 c -1.14375,4.69643 -1.78042,8.83809 -1.41482,9.20369 0.36559,0.3656 5.96682,1.62207 12.44717,2.79217 l 11.78245,2.12744 0.27418,16.73834 c 0.21636,13.20872 2e-5,16.73834 -1.02594,16.73834 -2.09346,0 -41.61807,-7.80151 -42.60039,-8.40862 -0.50785,-0.31387 -0.30764,-3.0457 0.46332,-6.32204 0.74667,-3.17314 1.36462,-6.50808 1.37321,-7.41098 0.0112,-1.17373 -3.61839,-3.09868 -12.73438,-6.75372 -7.0125,-2.81164 -13.04156,-5.11041 -13.39791,-5.10836 -0.66018,0.004 -15.51557,18.72702 -37.68582,47.49792 -13.66679,17.73575 -14.16556,18.33267 -14.16784,16.9558 z m 266.56221,-31.43186 c -13.5811,-17.59002 -25.06102,-32.20936 -25.51094,-32.48742 -1.47514,-0.91169 -26.52969,9.21051 -26.86637,10.8542 -0.17417,0.85029 0.39621,4.32865 1.26752,7.72968 0.8713,3.40103 1.34643,6.42145 1.05584,6.71205 -0.5312,0.53119 -40.92024,8.15757 -43.25669,8.16785 -0.95079,0.004 -1.25,-4.03049 -1.25,-16.85577 v -16.86127 l 11.25,-1.69029 c 16.28326,-2.44652 14.90961,-1.13459 12.22698,-11.67765 l -2.29699,-9.02745 2.30324,-0.87569 c 1.26679,-0.48164 3.82614,-1.16139 5.68746,-1.51058 3.31908,-0.62266 3.41874,-0.53885 5.17868,4.35537 l 1.79446,4.99024 15.67809,-6.51017 c 18.74125,-7.78212 21.15416,-8.68849 21.69374,-8.14891 0.5634,0.5634 44.45212,89.74412 45.55555,92.56767 0.48361,1.2375 0.72248,2.25 0.53082,2.25 -0.19166,0 -11.46029,-14.39184 -25.04139,-31.98186 z M 396,633.06127 v -37.93872 l -4.75,-0.60951 C 368.50414,591.59434 353.88864,588.05193 337,581.3643 294.63635,564.58897 258.96354,532.91729 238.75537,494.13899 230.13734,477.60149 229.62406,479 244.31176,479 h 12.44653 l 4.65909,8.30128 c 12.72537,22.67329 34.99069,45.57213 58.08262,59.73527 20.08758,12.32045 47.01018,21.50707 69.04217,23.5588 L 395.5,571.2433 395.20441,554.12165 394.90881,537 h -2.99656 c -4.74647,0 -17.61253,-2.87742 -27.41225,-6.13058 -17.67258,-5.86669 -34.3237,-15.68971 -48.44093,-28.57685 -7.81302,-7.13223 -20.29918,-22.09505 -19.5072,-23.3765 0.25475,-0.41219 6.95424,-0.66526 14.88776,-0.56237 l 14.42458,0.18708 6.81789,6.54096 c 8.74149,8.38641 14.03003,11.94816 26.79419,18.04547 10.03137,4.79188 26.82153,9.87279 32.6252,9.87279 h 2.84504 L 395.22327,498.25 395.5,483.5 h 11.5 11.5 l 0.27673,14.75 c 0.32221,17.1738 -0.96366,15.96407 13.55647,12.75374 17.50342,-3.86992 35.03368,-12.99347 48.04296,-25.00374 l 8.12384,-7.5 14.5,0.0818 c 7.975,0.045 14.4539,0.43082 14.39755,0.85745 -0.30221,2.28827 -9.93378,13.79295 -18.01563,21.51925 -19.55932,18.69884 -43.21914,30.46109 -70.13025,34.86459 l -10.24833,1.67695 -0.002,16.8665 -0.002,16.86649 6.75,-0.69318 c 24.32367,-2.49788 53.68092,-13.22682 74.42183,-27.1983 22.13226,-14.90872 41.58321,-35.74738 52.8229,-56.59151 l 4.179,-7.75 h 12.88038 12.88038 l -4.385,9.44776 c -13.4994,29.08528 -40.83086,59.15025 -70.5886,77.64839 -24.41507,15.17701 -53.85635,25.1809 -81.46089,27.67968 l -8,0.72417 -0.26188,38.25 -0.26189,38.25 H 406.98812 396 Z m -244.91566,5.4047 c 0.87138,-1.08128 5.35222,-6.69097 9.95741,-12.46597 4.60519,-5.775 14.42656,-17.925 21.82527,-27 7.3987,-9.075 13.84965,-17.01934 14.33543,-17.6541 0.56628,-0.73992 -2.72082,-8.60121 -9.1596,-21.90572 C 182.51928,548.02678 178,538.53928 178,538.35684 c 0,-0.18243 3.1702,-1.92818 7.04488,-3.87944 3.87469,-1.95126 7.27519,-4.14792 7.55668,-4.88146 C 193.30357,527.76653 183.04822,505 181.52214,505 c -1.34265,0 -18.30099,5.3357 -60.56946,19.05731 C 105.80166,528.97579 92.761955,533 91.975566,533 91.189177,533 102.68547,526.31922 117.52288,518.15382 188.00262,479.36706 180,484.08963 180,481.28439 180,479.01805 180.10663,479 193.49565,479 h 13.49565 l 11.00435,21.99131 C 224.04804,513.08652 229,523.38059 229,523.86701 c 0,0.48642 -4.05,3.22179 -9,6.07861 -4.95,2.85681 -8.99053,5.50024 -8.97897,5.87429 0.0116,0.37405 4.06157,8.32085 9,17.65956 4.93844,9.33871 8.97897,17.45202 8.97897,18.02957 0,0.96085 -72.36709,64.07946 -77.34107,67.45693 -2.07378,1.40815 -2.09644,1.38843 -0.57459,-0.5 z m 499.69511,-9.28164 C 644.02575,623.23571 626.575,608.11308 612,595.5785 c -14.575,-12.53459 -26.64686,-23.18312 -26.82635,-23.66339 -0.1795,-0.48027 3.758,-8.70122 8.75,-18.26878 4.99199,-9.56755 9.07635,-17.63421 9.07635,-17.9259 0,-0.29169 -3.56181,-2.6185 -7.91514,-5.17068 -4.35333,-2.55218 -8.38763,-5.20964 -8.96512,-5.90547 -0.77146,-0.92955 1.84823,-7.1511 9.87601,-23.45471 L 606.92174,479 h 13.90046 13.90046 l -0.43645,2.28313 c -0.39816,2.08283 3.43221,4.42015 43.66226,26.64308 24.25428,13.39797 43.92045,24.53821 43.70258,24.75607 -0.21786,0.21787 -9.34098,-2.50952 -20.27358,-6.06086 C 656.45695,512.02948 634.15535,505 632.78171,505 c -1.68744,0 -12.23281,23.46109 -11.25588,25.0418 0.34264,0.5544 3.7395,2.57745 7.54857,4.49567 3.80908,1.91822 6.9256,3.70371 6.9256,3.96774 0,0.26404 -4.49264,9.76326 -9.98365,21.10938 -5.49101,11.34611 -9.67791,21.13692 -9.30422,21.75735 0.37368,0.62044 5.20383,6.70397 10.73365,13.51897 5.52982,6.81501 16.0294,19.75251 23.33239,28.75 7.303,8.9975 13.05375,16.35909 12.77945,16.35909 -0.27429,0 -6.02447,-4.86705 -12.77817,-10.81567 z M 229,460.08725 c -27.13694,-0.71036 -31.28902,-1.57332 -39.27902,-8.16367 -8.46833,-6.98489 -9.99534,-14.41836 -9.5529,-46.50327 l 0.33192,-24.06957 3.02249,-5.92537 c 3.22934,-6.33088 9.14068,-11.2478 16.3002,-13.55816 4.46721,-1.44156 82.35396,-2.90687 95.27843,-1.7925 C 315.30118,361.81638 324,371.17981 324,391.1815 V 399 h -16.87219 -16.87219 l -0.61265,-3.83129 c -1.22977,-7.69052 -0.96838,-7.63205 -35.57555,-7.95894 -18.72003,-0.17683 -31.74878,0.0988 -33.34421,0.70537 -5.45561,2.07421 -6.23458,4.92728 -6.10835,22.37244 0.10266,14.18803 0.32643,16.15688 2.10749,18.54293 l 1.99263,2.66949 33.01527,0.26332 c 37.56123,0.29958 36.89747,0.43112 37.96441,-7.52354 L 290.26334,420 h 16.98175 16.98175 l -0.39491,10.25 c -0.3493,9.06647 -0.73766,10.87668 -3.36342,15.67736 -3.31854,6.06731 -8.75802,10.13988 -16.96851,12.70441 -5.96716,1.86383 -36.2783,2.45601 -74.5,1.45548 z m 137,-0.45651 C 353.56749,456.91448 345.34772,450.14019 342.21306,440.02685 340.78113,435.40701 340.5,430.22959 340.5,408.47826 v -26.02174 l 3.35687,-6.81806 c 2.64783,-5.37794 4.3376,-7.44125 8,-9.76848 9.84929,-6.25863 10.95933,-6.37283 61.64313,-6.34197 45.05472,0.0274 46.12134,0.0736 51.90484,2.24941 8.02275,3.01816 12.12625,6.38032 15.29844,12.53459 2.21729,4.30172 2.74717,6.8536 3.10173,14.93799 l 0.4276,9.75 H 466.61631 449 v -3.5 c 0,-2.16667 -0.7619,-4.2619 -2,-5.5 -1.91678,-1.91678 -3.33333,-2 -34.04545,-2 h -32.04546 l -2.45454,2.45455 C 376.03689,392.87221 376,393.17013 376,410.28023 c 0,16.86488 0.0675,17.43451 2.31445,19.54546 2.27699,2.13912 2.83361,2.17431 34.38922,2.17431 36.54693,0 36.19424,0.0737 36.46757,-7.61895 l 0.14636,-4.11895 8.21652,-0.51261 c 4.51908,-0.28194 12.32262,-0.27849 17.3412,0.008 L 484,420.27741 v 7.67979 c 0,18.36482 -7.52026,27.92544 -24.85602,31.59985 -8.75824,1.85635 -84.70959,1.91644 -93.14398,0.0737 z M 548,424.01633 V 388.03267 L 521.25,387.76633 494.5,387.5 v -14 -14 l 2.75,0.0625 c 1.5125,0.0344 33.125,0.14688 70.25,0.25 L 635,360 v 13.5 13.5 l -24.25,0.0136 c -13.3375,0.008 -25.2625,0.285 -26.5,0.61664 L 582,388.23326 V 424.11663 460 H 565 548 Z M 176,338.68961 c 0,-0.72071 1.08347,-4.07507 2.40772,-7.45414 1.77746,-4.53554 2.10467,-6.38168 1.25,-7.0527 -0.63675,-0.49992 -6.33272,-3.73771 -12.65772,-7.1951 -6.325,-3.45739 -21.85,-11.99957 -34.5,-18.98262 -12.65,-6.98305 -26.375,-14.54046 -30.5,-16.79424 -11.542971,-6.30675 -12.603715,-7.54229 -4,-4.65912 11.65328,3.9051 79.19594,25.27377 82.00622,25.94455 2.37727,0.56743 2.77903,-0.0217 7.80866,-11.44959 2.91635,-6.62629 5.03126,-12.48658 4.69982,-13.02287 -0.33145,-0.53629 -3.50384,-2.59752 -7.04976,-4.58051 -3.54593,-1.983 -6.67746,-3.97811 -6.95896,-4.4336 -0.2815,-0.45548 4.0132,-9.93267 9.54378,-21.06042 5.53059,-11.12775 9.84321,-20.73109 9.58361,-21.34076 -0.2596,-0.60967 -11.12181,-14.15849 -24.13823,-30.10849 -13.01643,-15.95 -23.93989,-29.43554 -24.27436,-29.96787 -0.33446,-0.53233 3.19775,2.39267 7.84938,6.5 4.65162,4.10733 22.73877,19.81205 40.19367,34.89939 17.45489,15.08733 31.73617,27.824 31.73617,28.30369 0,0.47969 -4.10062,8.74739 -9.11249,18.37266 -5.01187,9.62527 -8.94937,17.65119 -8.75,17.83538 0.19937,0.18419 4.29999,2.65222 9.11249,5.48451 4.8125,2.83229 8.75,5.34191 8.75,5.57693 0,0.23502 -4.62916,9.78011 -10.28702,21.21131 -5.65786,11.4312 -11.70718,24.0465 -13.44294,28.034 L 202.11412,340 H 189.05706 C 178.95717,340 176,339.70322 176,338.68961 Z m 51,0.4828 c 0,-1.51286 5.11108,-13.43384 9.48013,-22.11126 9.04064,-17.95573 24.07857,-37.91087 39.25503,-52.0909 30.89166,-28.86344 67.19173,-45.61658 110.51484,-51.00461 L 396,212.75305 V 174.87653 137 h 10.94421 l 10.94421,0 0.30579,37.41789 c 0.16818,20.57984 0.53079,37.64027 0.80579,37.91207 0.275,0.27179 5.81777,1.22851 12.31726,2.12604 49.45371,6.82914 91.21664,29.68501 122.50481,67.044 9.2597,11.05635 17.92778,24.10199 23.91994,36 C 581.62436,325.20878 587,337.9963 587,339.52283 587,339.78527 581.45781,340 574.68401,340 h -12.31598 l -2.30226,-5.55462 c -1.26625,-3.05504 -5.08738,-10.19187 -8.4914,-15.85962 C 528.90442,280.83994 493.49493,253.62295 452,242.04935 c -8.71445,-2.4306 -23.83956,-5.03953 -29.25,-5.04533 L 419,237 v 16.43873 16.43872 l 4.75,0.63162 c 9.36811,1.2457 25.91604,5.74685 35.01197,9.52351 25.18615,10.45736 46.15267,28.11405 61.11525,51.46742 l 5.12563,8 -13.74201,0.27979 -13.74201,0.27978 -1.97276,-2.77978 C 492.11095,332.43941 480.71109,320.93433 474.89748,316.44062 460.67077,305.44388 441.73932,297.44737 423.25,294.6251 L 419,293.97636 v 14.90053 14.90053 l -3.25,0.51577 c -1.7875,0.28367 -7.075,0.44625 -11.75,0.36129 l -8.5,-0.15448 -0.27568,-15.18296 -0.27569,-15.18296 -3.72431,0.53828 c -29.34555,4.24139 -57.96992,21.13854 -73.59158,43.44159 -1.25411,1.79049 -2.45069,1.92218 -15.13048,1.66515 l -13.76868,-0.2791 7.27925,-10.88321 c 20.23768,-30.25742 51.98888,-50.76521 88.36816,-57.07615 4.88454,-0.84735 9.25105,-1.54064 9.70335,-1.54064 0.4523,0 0.95586,-7.48092 1.11901,-16.62426 l 0.29665,-16.62426 -7.98745,0.66746 c -17.93961,1.4991 -35.96569,6.79572 -55.01255,16.16439 -17.32394,8.52121 -29.4271,17.33624 -44.50344,32.41293 -14.80282,14.80318 -23.16688,26.25046 -30.85496,42.22894 l -5.6416,11.72521 -12.25,0.0248 C 232.5125,339.98884 227,339.62758 227,339.17241 Z M 608.29666,331.75 c -2.05635,-4.5375 -8.14352,-17.2047 -13.52704,-28.14933 -8.98169,-18.25965 -9.64326,-19.99776 -8.02892,-21.09385 0.96761,-0.65698 5.0218,-3.08463 9.0093,-5.39478 3.9875,-2.31014 7.25,-4.4477 7.25,-4.75013 0,-0.30242 -4.05,-8.31597 -9,-17.80788 -4.95,-9.49191 -9,-17.68347 -9,-18.20346 0,-0.51999 6.8625,-6.83201 15.25,-14.02672 8.3875,-7.19471 26.1625,-22.59389 39.5,-34.2204 13.3375,-11.62651 24.25,-20.9259 24.25,-20.66531 0,0.2606 -10.85182,13.81498 -24.11515,30.12086 l -24.11516,29.64705 9.54501,19.64698 c 5.24976,10.80583 9.68908,20.29319 9.86516,21.08302 0.20163,0.90446 -2.386,2.91855 -6.99034,5.44096 -6.52962,3.57713 -7.2465,4.25984 -6.71147,6.39155 0.49754,1.98238 9.24968,21.82778 10.20359,23.13656 0.2935,0.40269 29.33281,-8.6296 70.18201,-21.82919 11.75001,-3.79678 20.97501,-6.53768 20.5,-6.0909 -1.01351,0.9533 -25.54618,14.64953 -61.36365,34.25845 -14.025,7.67823 -25.94502,14.38206 -26.48893,14.8974 -0.87735,0.83126 0.42849,5.45595 3.98387,14.10912 0.66402,1.61609 -0.32082,1.75 -12.87022,1.75 H 612.03547 Z M 284.46659,166.84808 C 271.55996,140.91214 261,119.28172 261,118.78048 c 0,-0.50124 8.22725,9.5806 18.28277,22.40409 28.57019,36.43463 32.88958,41.81492 33.57597,41.82266 0.35269,0.004 6.37198,-2.13353 13.37618,-4.75 14.24546,-5.3215 13.68671,-4.60153 11.30557,-14.56782 -1.04563,-4.37651 -1.09854,-5.91653 -0.21437,-6.2398 0.64563,-0.23606 9.72388,-2.01439 20.17388,-3.95184 10.45,-1.93745 20.02317,-3.7533 21.27372,-4.03521 l 2.27372,-0.51257 -0.27372,17.22722 -0.27372,17.22721 -12.25,1.91625 c -14.09101,2.20423 -13.45881,1.3945 -10.37036,13.28243 l 1.84536,7.1031 -5.02347,1.60643 c -2.7629,0.88355 -5.32155,1.42221 -5.68589,1.19704 C 348.6513,208.28449 347.74426,206.25514 347,204 c -0.74426,-2.25514 -1.69473,-4.31133 -2.11215,-4.56931 -0.73332,-0.45322 -19.32069,6.69651 -31.17126,11.99018 l -5.78342,2.58346 z M 488.5,206.49333 c -9.35,-4.06841 -17.52633,-7.41875 -18.16963,-7.44521 -0.6433,-0.0265 -1.92706,2.23227 -2.8528,5.01942 -1.1298,3.40151 -2.12196,4.89916 -3.01782,4.55539 -0.73406,-0.28169 -3.1628,-1.00443 -5.3972,-1.60609 -4.7335,-1.2746 -4.78951,-1.58588 -2.12882,-11.83023 1.37781,-5.30493 1.57907,-7.41309 0.73286,-7.67643 -0.64162,-0.19967 -5.44159,-1.08291 -10.66659,-1.96277 -5.225,-0.87986 -10.5125,-1.82155 -11.75,-2.09263 -2.22633,-0.4877 -2.25,-0.67265 -2.25,-17.58224 v -17.08936 l 2.25,0.54142 c 1.2375,0.29778 10.8,2.16227 21.25,4.14332 10.45,1.98105 19.51358,3.7783 20.1413,3.9939 0.8412,0.28892 0.78471,2.05455 -0.21487,6.71508 -0.7459,3.47771 -1.3652,6.9981 -1.37623,7.8231 -0.0223,1.66785 25.13935,11.61892 26.79366,10.5965 0.52036,-0.3216 4.7247,-5.42488 9.34298,-11.34062 4.61827,-5.91573 14.90303,-19.09903 22.85501,-29.29621 7.95198,-10.19718 15.68443,-20.09718 17.18322,-22 1.51224,-1.91989 -2.54192,7.44443 -9.10914,21.04033 -13.16259,27.25006 -35.98823,73.03022 -36.36993,72.94521 -0.1353,-0.0301 -7.896,-3.38348 -17.246,-7.45188 z"
         id="path16" />
    </g>
  </g>
</svg>
