<?xml version="1.0" encoding="UTF-8" standalone="no"?>
<svg
   version="1.1"
   id="svg1"
   width="800"
   height="800"
   viewBox="0 0 800 800"
   xmlns="http://www.w3.org/2000/svg">
  <g
     id="g1">
    <g
       id="g3"
       transform="translate(218.13063,199.71071)">
      <path
         style="fill:#9cf85e"
         d="m 39.869372,482.65385 c 0,-0.44115 10.20792,-21.40365 22.68426,-46.58333 15.6021,-31.48808 23.17309,-45.77278 24.25,-45.75418 0.86116,0.0149 4.71574,1.40584 8.565737,3.09101 11.573901,5.06598 25.781261,10.88194 26.582671,10.88194 0.41355,0 1.54245,-2.06999 2.50866,-4.59998 1.75472,-4.59466 1.76131,-4.59925 5.70795,-3.96815 5.92036,0.9467 7.99761,2.34246 7.29806,4.90375 -1.43659,5.25982 -2.88827,14.70678 -2.34363,15.25142 0.32861,0.32862 5.67136,1.46318 11.87278,2.52125 6.20141,1.05808 11.628,2.47906 12.05909,3.15774 0.9408,1.48115 1.05732,23.63039 0.1531,29.10398 l -0.63932,3.87002 -5.27872,-0.62041 c -9.90414,-1.16404 -36.91752,-6.81156 -38.10846,-7.9671 -0.91633,-0.8891 -0.8469,-2.61446 0.30378,-7.54873 0.82039,-3.51792 1.12991,-6.72627 0.68783,-7.12967 -0.44209,-0.40339 -6.18077,-2.86635 -12.75263,-5.47324 -8.633701,-3.42476 -12.374468,-4.47132 -13.482938,-3.77212 -0.84375,0.53223 -4.69177,5.02493 -8.55116,9.98378 -3.85938,4.95885 -11.74206,14.97541 -17.51706,22.25902 -5.775,7.28362 -13.11014,16.68217 -16.3003,20.88569 -5.45164,7.18334 -7.6997,9.37523 -7.6997,7.50731 z M 311.84421,462.14963 c -9.06116,-11.62681 -19.76972,-25.37835 -23.79679,-30.55899 -4.02707,-5.18063 -7.88307,-9.63466 -8.56889,-9.89783 -1.4273,-0.54771 -24.79834,8.34595 -25.70975,9.78363 -0.33032,0.52106 0.0309,3.68078 0.80269,7.02161 0.77181,3.34082 1.19086,6.62779 0.93124,7.30437 -0.26962,0.7026 -6.61775,2.37818 -14.8027,3.90714 -7.88185,1.47235 -16.49029,3.10512 -19.12986,3.62837 -2.63957,0.52325 -6.12707,0.95136 -7.75,0.95136 h -2.95078 V 437.3977 c 0,-19.47788 -1.6926,-17.03428 13.2865,-19.18167 12.05183,-1.72775 12.02745,-1.70016 9.81253,-11.103 -0.99452,-4.22194 -1.53615,-8.10971 -1.20362,-8.63948 0.87482,-1.39375 8.69147,-3.55677 10.43522,-2.88763 0.81443,0.31253 1.77714,1.91754 2.13935,3.5667 0.36222,1.64916 1.19215,3.42957 1.8443,3.95646 1.20562,0.97406 12.63455,-3.12589 27.02894,-9.69621 3.76377,-1.71797 7.67504,-3.12358 8.69172,-3.12358 1.42938,0 5.40989,7.19885 17.55572,31.75 15.59832,31.52989 29.40934,60.11016 29.40934,60.85916 0,1.87957 -3.79082,-2.48406 -18.02516,-20.74882 z m -138.19431,4.88966 c -0.1207,-0.1375 -0.4582,-17.12035 -0.75,-37.73967 l -0.53053,-37.48967 -12.82954,-1.72523 c -34.48371,-4.63714 -68.986678,-19.55487 -95.802158,-41.42108 -12.1096,-9.87455 -28.27137,-27.5423 -36.69149,-40.11044 -7.8264,-11.68193 -17.17681,-28.88342 -17.17681,-31.59932 0,-0.96837 1.9975,-1.56403 6.75,-2.01288 8.92802,-0.84319 16.4925,-0.79502 17.83767,0.1136 0.59823,0.40408 2.73809,3.88469 4.75526,7.73469 7.5679,14.4442 24.40172,34.42806 39.15707,46.48437 24.361238,19.90509 52.284908,32.2279 82.701398,36.49638 5.57939,0.78298 10.51655,1.19356 10.97147,0.91241 1.11634,-0.68993 1.06174,-31.13013 -0.0571,-31.82159 -0.48631,-0.30056 -5.68372,-1.47268 -11.54979,-2.60471 -30.37354,-5.86149 -57.96425,-21.61212 -77.129008,-44.03042 -8.12189,-9.50071 -8.79634,-10.55764 -8.02305,-12.5728 0.48917,-1.27474 2.77861,-1.46327 14.44214,-1.18926 l 13.860808,0.32562 6.62971,6.2047 c 13.32756,12.47317 29.98149,21.46754 47.69527,25.75904 16.32908,3.95602 14.95812,5.0013 14.95812,-11.40472 0,-9.20064 0.38035,-14.17606 1.11859,-14.63231 2.14283,-1.32435 18.4391,-1.7338 20.7066,-0.52026 2.07369,1.1098 2.17481,1.81321 2.17481,15.12873 v 13.96482 h 2.35209 c 5.51731,0 23.89976,-5.52612 33.49063,-10.06794 11.67348,-5.52804 17.67508,-9.62201 27.3677,-18.66878 l 6.71044,-6.26328 h 13.57097 c 15.69531,0 16.51152,0.49501 11.87553,7.20231 -3.9512,5.71654 -17.61912,19.43048 -24.86733,24.95105 -17.55038,13.36717 -38.64702,22.62774 -59,25.89861 -3.85,0.61872 -8.0125,1.31872 -9.25,1.55554 -2.22109,0.42506 -2.25,0.63514 -2.25,16.35253 0,8.75706 0.38069,16.15721 0.84599,16.44477 1.27317,0.78687 24.67555,-3.05845 32.57917,-5.35318 23.88192,-6.93386 46.02136,-18.89108 63.76228,-34.43719 15.52363,-13.60314 28.12807,-28.60647 35.38074,-42.11444 5.89031,-10.97061 5.08862,-10.5 17.88681,-10.5 6.80659,0 11.5754,0.43039 12.25065,1.10564 2.30752,2.30752 -10.1115,25.09154 -22.56306,41.39436 -2.52043,3.3 -9.0961,10.6674 -14.61259,16.372 -30.07291,31.09837 -69.68177,51.21679 -112.02999,56.90309 l -13,1.74557 -0.53053,37.48967 c -0.2918,20.61932 -0.6293,37.60217 -0.75,37.73967 -0.12071,0.1375 -5.16947,0.25 -11.21947,0.25 -6.05,0 -11.09876,-0.1125 -11.21947,-0.25 z M -69.499048,433.02191 c 0.85419,-1.48819 27.36687,-34.43276 38.61842,-47.98712 3.1625,-3.80975 5.75,-7.77645 5.75,-8.81489 0,-1.03843 -4.275,-10.48056 -9.5,-20.98251 -5.225,-10.50194 -9.5,-19.50586 -9.5,-20.0087 0,-0.50284 3.11652,-2.48371 6.9256,-4.40193 3.80907,-1.91822 7.23492,-3.98818 7.61299,-4.59991 0.37807,-0.61173 -1.68243,-6.24793 -4.57889,-12.5249 -4.11733,-8.92273 -5.69738,-11.41266 -7.24218,-11.41266 -1.74615,0 -61.686822,18.61985 -77.124072,23.95766 -11.17168,3.86289 -12.52843,2.0575 -2.32466,-3.09334 3.3677,-1.70001 13.79742,-7.39093 23.177152,-12.64649 9.37973,-5.25556 23.35406,-13.01604 31.05406,-17.2455 21.47315,-11.79481 23.97081,-13.40264 24.30077,-15.6433 0.27962,-1.8988 1.18853,-2.08078 12.92396,-2.5876 6.94275,-0.29983 13.1074,-0.34574 13.69923,-0.10202 1.60906,0.66263 22.9183295,44.99774 22.1923495,46.1724 -0.34422,0.55696 -4.02226,2.87671 -8.1734099,5.15499 -4.15115,2.27829 -7.78772,4.76822 -8.08127,5.53319 -0.2935496,0.76497 3.33,8.77809 8.05233,17.80695 4.7223199,9.02885 8.5860399,17.10594 8.5860399,17.94909 0,1.45961 -10.6113099,10.91607 -55.2795395,49.26339 -19.37796,16.63583 -22.87429,19.32381 -21.08888,16.2132 z m 497.820998,-7.50529 c -5.52608,-4.80003 -22.51358,-19.46815 -37.75,-32.59581 -15.39039,-13.26033 -27.6953,-24.59359 -27.6862,-25.5 0.009,-0.89734 3.84218,-8.83152 8.51815,-17.63152 4.67597,-8.8 8.37661,-16.66632 8.22364,-17.48071 -0.15297,-0.8144 -3.75044,-3.49948 -7.99437,-5.96685 -4.24394,-2.46737 -7.96013,-5.12169 -8.25822,-5.89849 -0.29808,-0.77679 2.99165,-8.21671 7.31052,-16.53315 4.31887,-8.31644 9.11957,-18.1583 10.66821,-21.8708 l 2.81573,-6.75 h 13.78043 c 13.49321,0 13.78709,0.0465 14.09998,2.23064 0.34719,2.4236 3.33207,4.19803 55.05502,32.72863 15.25451,8.41445 28.52951,15.90158 29.5,16.63806 1.6115,1.22293 1.61871,1.34182 0.0831,1.37087 -1.28722,0.0243 -41.17564,-12.42021 -85.09217,-26.54741 -1.45416,-0.46778 -2.76731,1.54445 -7.29192,11.17389 -3.03511,6.45942 -5.31567,12.27267 -5.0679,12.91832 0.24776,0.64566 3.41076,2.70687 7.0289,4.58046 3.61813,1.8736 6.7977,3.97565 7.0657,4.67123 0.26801,0.69559 -3.77613,9.84818 -8.98697,20.3391 -5.2108,10.49092 -9.47421,19.86796 -9.47421,20.83787 0,0.96991 10.125,14.24629 22.5,29.50307 12.375,15.25678 22.5,27.92312 22.5,28.14743 0,1.29919 -2.53927,-0.54023 -11.54742,-8.36483 z M -17.370528,255.75989 c -11.53237,-2.8523 -19.17384,-8.76147 -22.38169,-17.30781 -2.30422,-6.13888 -3.26401,-50.25928 -1.29538,-59.547 1.87663,-8.85368 6.10932,-14.44127 13.91697,-18.37182 9.70763,-4.88705 16.65856,-5.43394 64.04374,-5.03889 40.75148,0.33975 41.55624,0.38549 47.33709,2.69107 7.908057,3.15397 13.059977,7.99335 15.525859,14.584 2.342699,6.26142 3.666459,19.32442 2.180749,21.51985 -0.82518,1.21937 -3.874931,1.51023 -16.301268,1.55467 -8.40739,0.0301 -16.07367,-0.32326 -17.03617,-0.78518 -1.04794,-0.50293 -1.75,-1.95935 -1.75,-3.63036 0,-1.62391 -0.96757,-3.69949 -2.31445,-4.96482 -2.27747,-2.13957 -2.82944,-2.17431 -34.54546,-2.17431 H -2.2215384 l -2.45454,2.45455 c -2.4125299,2.41252 -2.4545499,2.74401 -2.4545499,19.36514 0,15.5938 0.1613899,17.11576 2.0725799,19.54545 l 2.07258,2.63486 H 29.719442 c 36.12235,0 37.14993,-0.16527 37.14993,-5.97492 0,-6.13576 -0.33228,-6.02508 18.08794,-6.02508 h 16.873958 l 0.65776,2.62074 c 1.02605,4.0881 -1.37851,18.39633 -3.927441,23.37003 -2.79076,5.44562 -8.977607,10.35748 -15.986347,12.69188 -4.57904,1.52514 -10.56408,1.76244 -49.70587,1.97076 -35.6939804,0.18998 -45.63586,-0.0441 -50.2399,-1.18281 z m 160.628648,0.0696 c -8.27409,-1.83856 -13.48601,-4.66761 -17.72703,-9.62228 -6.00872,-7.01983 -6.87174,-10.92855 -7.40924,-33.55709 -0.70963,-29.87555 1.447,-41.01094 9.40427,-48.5572 8.33998,-7.90919 17.79941,-9.07507 69.48693,-8.56433 44.68713,0.44156 46.68456,0.6974 55.00759,7.04559 6.63987,5.0644 9.21398,11.12033 9.68225,22.77876 l 0.39073,9.72821 -2.86212,0.57822 c -3.78563,0.76479 -29.77753,0.10928 -31.22868,-0.78758 -0.6234,-0.3853 -1.13345,-2.02398 -1.13345,-3.64152 0,-1.61754 -0.9,-3.84098 -2,-4.94098 -1.91678,-1.91678 -3.33333,-2 -34.04545,-2 h -32.04546 l -2.45454,2.45455 c -2.41876,2.41875 -2.45455,2.7093 -2.45455,19.92742 v 17.47287 l 2.63486,2.07258 c 2.53953,1.99759 3.77969,2.07258 34.27749,2.07258 36.02451,0 35.75054,0.0549 36.28098,-7.26701 l 0.30667,-4.23299 h 17 17 l -0.0489,10 c -0.0447,9.13373 -0.30457,10.46977 -3,15.42289 -3.36842,6.18978 -8.51691,10.34196 -15.86473,12.79463 -4.42697,1.47771 -10.79039,1.7291 -49.08635,1.93921 -34.1233,0.18722 -45.3718,-0.0634 -50.11125,-1.11655 z m 182.81125,0.2598 c -0.88799,-0.88799 -1.2,-10.37409 -1.2,-36.4834 V 184.3225 l -26.25,-0.26661 -26.25,-0.2666 -0.27805,-13.72391 -0.27805,-13.72391 2.50744,-0.62932 c 1.37909,-0.34613 32.90817,-0.47037 70.06464,-0.27609 54.65693,0.28578 67.71329,0.60582 68.37461,1.676 1.29338,2.09304 1.28115,24.26538 -0.0142,25.82623 -0.88779,1.06972 -6.40488,1.351 -26.49878,1.351 h -25.37761 v 35.3 c 0,26.12222 -0.31199,35.61199 -1.2,36.5 -0.83077,0.83077 -6,1.2 -16.8,1.2 -10.8,0 -15.96923,-0.36923 -16.8,-1.2 z M -45.697508,134.97561 c -0.28993,-0.75555 0.39401,-3.71072 1.51987,-6.56705 1.12585,-2.85632 2.04701,-5.75661 2.04701,-6.44509 0,-0.68848 -8.4375,-5.91401 -18.75,-11.61229 -21.00855,-11.608498 -39.236982,-21.733857 -56.093002,-31.158027 -6.23865,-3.48802 -10.85165,-6.50564 -10.2511,-6.70583 0.60055,-0.20018 16.0549,4.45282 34.343002,10.34 49.82787,16.040229 51.54689,16.523329 53.13716,14.933059 2.01138,-2.01139 10.74374,-22.452049 10.06252,-23.554299 -0.32457,-0.52515 -2.70007,-2.02401 -5.27889,-3.3308 -2.57883,-1.30679 -5.74511,-3.23135 -7.03619,-4.2768 l -2.34741,-1.90082 10.136,-20.25269 c 5.71322,-11.41557 9.82227,-20.77695 9.41701,-21.45418 -0.85574,-1.43006 -15.17629,-19.2418201 -32.67353,-40.63905 -6.9431,-8.49065 -12.41917,-15.64218 -12.16906,-15.89229 0.48268,-0.48269 1.7977,0.60614 29.98796,24.8298403 C -4.0929484,21.839933 6.8693715,31.631043 6.8693715,32.835143 c 0,0.67251 -4.00242,8.78701 -8.8942699,18.0322 -4.89184,9.24519 -8.7117396,17.2851 -8.4886496,17.86646 0.22309,0.58135 3.9847296,3.08167 8.3592096,5.55625 4.3744799,2.47458 8.1313499,4.94924 8.3485999,5.49924 0.21725,0.55 -4.6474299,11.575 -10.8103899,24.499997 -6.1629596,12.925 -12.0624396,25.3 -13.1099396,27.5 l -1.90456,4 -12.76986,0.28003 c -10.101,0.2215 -12.88004,-0.007 -13.29702,-1.09371 z m 51.5668795,-0.70079 c 0,-5.93775 10.7607205,-27.32174 22.3857205,-44.485527 8.07606,-11.92392 29.98374,-33.96607 44.11428,-44.38505 25.865307,-19.07146 60.073068,-32.16788 93.272378,-35.7092701 3.4498,-0.36799 6.47414,-0.99554 6.72075,-1.39456 0.2466,-0.39901 0.49187,-16.8070196 0.54505,-36.4622299 0.0532,-19.65521 0.33948,-36.36948 0.63624,-37.14282 0.41789,-1.08902 2.9958,-1.40607 11.43257,-1.40607 5.99115,0 10.99177,0.1125 11.11248,0.25 0.1207,0.1375 0.4582,17.12035 0.75,37.73967 l 0.53053,37.4896699 12.54713,1.6872401 c 22.78595,3.06408 41.86127,9.10832 62.95287,19.94736 17.26112,8.87054 29.48553,17.62031 43.75608,31.31895 14.4175,13.8397 23.20713,24.77412 32.60989,40.567107 7.74709,13.01212 16.14334,31.36691 15.11193,33.03575 -0.32803,0.53078 -5.89605,0.96425 -12.38586,0.96425 h -11.78992 l -6.11583,-12.25 C 321.74987,99.390832 302.18988,77.458303 277.98908,61.172083 c -15.90926,-10.70632 -30.7784,-17.56095 -48.51772,-22.36652 -10.12831,-2.74375 -29.28499,-5.85189 -31.30052,-5.07846 -0.99103,0.38029 -1.30147,4.19002 -1.30147,15.97179 0,8.5098 0.3375,15.68073 0.75,15.93539 0.4125,0.25466 4.86106,1.17231 9.88569,2.03921 13.21754,2.28044 24.22816,5.9641 37.86431,12.66771 14.31629,7.03798 22.89936,13.265789 35.02025,25.410427 8.74172,8.75886 20.57729,24.84012 20.84718,28.32556 0.11794,1.52315 -1.31803,1.74281 -13.0115,1.99039 l -13.14406,0.27828 -3.60914,-4.91662 c -8.53763,-11.63058 -26.17052,-25.07177 -41.74404,-31.820628 -8.51665,-3.69074 -25.20035,-8.319319 -29.98691,-8.319319 h -2.87178 v 13.877557 c 0,10.65615 -0.32405,14.14649 -1.396,15.03613 -0.91361,0.75823 -4.9738,1.0597 -11.75,0.87244 l -10.354,-0.28613 -0.27745,-14.87519 -0.27745,-14.875187 -4.92,0.65266 c -26.0211,3.451819 -53.55274,19.042667 -69.011941,39.080657 l -4.25638,5.51706 H 81.806782 c -7.75148,0 -13.0721,-0.40892 -13.45865,-1.03436 -1.14573,-1.85384 12.48127,-20.84859 21.35753,-29.77039 4.765037,-4.78948 11.796708,-11.043938 15.625928,-13.898787 14.88605,-11.0982 37.21182,-20.51603 56.53778,-23.84972 5.225,-0.9013 9.8375,-1.84709 10.25,-2.10175 1.08683,-0.67097 0.924,-31.11942 -0.17004,-31.79557 -1.47115,-0.90922 -21.65976,2.23425 -31.96517,4.97714 -45.044061,11.98895 -85.385868,45.56182 -106.070498,88.272957 l -4.45571,9.20048 h -11.79429 c -11.1558705,0 -11.7942905,-0.10904 -11.7942905,-2.01447 z m 383.2357885,0.76447 c -0.555,-0.6875 -2.41075,-4.625 -4.12388,-8.75 -1.71313,-4.125 -7.36976,-16.03598 -12.57029,-26.468828 -10.84252,-21.751329 -10.87692,-19.817599 0.46322,-26.033819 4.81556,-2.6397 6.99516,-4.4196 6.99516,-5.71235 0,-1.03282 -3.825,-9.03608 -8.5,-17.785 -4.675,-8.74892 -8.5,-16.5235 -8.5,-17.27684 0,-0.75334 3.9375,-4.6985 8.75,-8.76701 4.8125,-4.06852 15.725,-13.49499 24.25,-20.9477201 8.525,-7.4527296 20.45,-17.7722999 26.5,-22.9323699 6.05,-5.16008 12.2375,-10.52233 13.75,-11.9161 1.5125,-1.39378 2.75,-2.03066 2.75,-1.4153 0,1.10851 -12.5103,16.92677 -33.25,42.0419199 -5.9125,7.1598701 -10.75,13.7742701 -10.75,14.6986801 0,0.92441 4.27461,10.48526 9.49913,21.24632 7.63314,15.72215 9.26551,19.84708 8.30984,20.9986 -0.65412,0.78816 -3.80373,2.75278 -6.99914,4.36582 -4.11454,2.07701 -5.80983,3.50634 -5.80983,4.89838 0,2.72529 8.87651,22.747679 10.32253,23.284129 1.15463,0.42835 37.73136,-10.849929 70.99637,-21.891419 15.93375,-5.28882 19.38622,-6.04711 16.45454,-3.61403 -1.27337,1.05681 -53.59161,30.220867 -72.01087,40.141437 -5.35559,2.88451 -10.67582,6.00442 -11.82273,6.93313 l -2.0853,1.68857 2.16193,5.77827 c 3.22263,8.61325 3.12808,8.68553 -11.36264,8.68553 -8.7223,0 -12.70874,-0.37137 -13.41804,-1.25 z M 85.136012,9.0392929 c -2.30965,-2.95124 -45.38104,-90.9067899 -45.03094,-91.9570999 0.21258,-0.63774 1.59611,0.38547 3.07452,2.27379 1.4784,1.88832 9.24929,11.75831 17.26864,21.93331 8.01935,10.175 17.99342,22.92072 22.1646,28.32382 5.30331,6.8696 8.06099,9.67102 9.17025,9.31572 6.827987,-2.18705 24.592978,-9.6596 24.858548,-10.45633 0.1823,-0.54688 -0.3952,-3.79851 -1.28331,-7.22586 -0.88812,-3.42735 -1.24895,-6.59027 -0.80185,-7.02871 0.44709,-0.43845 9.3629,-2.41749 19.8129,-4.39789 10.45,-1.98039 20.02238,-3.82102 21.27196,-4.09029 1.33696,-0.2881 2.43413,0.0349 2.66603,0.78498 0.81019,2.62044 1.48103,31.32208 0.75899,32.47345 -0.41351,0.65938 -5.68949,1.92559 -11.72441,2.8138 -6.03491,0.8882 -11.52116,2.15087 -12.19167,2.80592 -0.95815,0.93608 -0.89245,2.44184 0.30692,7.0347403 2.30826,8.83931001 1.75979,10.8784396 -3.36193,12.4990896 -5.01196,1.58591 -6.72494,0.70488 -7.75591,-3.98910959 -0.36221,-1.64916001 -1.29636,-3.24321001 -2.07587,-3.54234001 -1.57275,-0.60352 -7.5505,1.62383 -23.733751,8.8433396 -11.995517,5.3513201 -12.009077,5.3549501 -13.393717,3.58567 z m 189.733358,-1.93003 c -9.33834,-4.39032 -25.11943,-10.8199696 -26.5568,-10.8199696 -0.67432,0 -1.93094,1.76173 -2.79249,3.91495001 -0.86155,2.15321959 -1.97922,4.17004959 -2.48372,4.48183959 -0.50449,0.3118 -2.99845,-0.14223 -5.54213,-1.00894 -5.20469,-1.7734196 -5.22083,-1.8319996 -3.13749,-11.3878496 1.74607,-8.0088203 1.52045,-8.2511203 -9.23433,-9.9168803 -4.26417,-0.66046 -9.10304,-1.52823 -10.75304,-1.92838 l -3,-0.72755 -0.27561,-16.38875 c -0.18895,-11.23543 0.0745,-16.60513 0.8378,-17.07688 0.61238,-0.37847 4.56141,-0.0619 8.77561,0.70358 19.07935,3.46545 33.72863,6.55174 34.46128,7.26026 0.4395,0.42502 0.0402,3.79389 -0.88732,7.48636 -0.96696,3.84949 -1.30785,7.04757 -0.79908,7.49644 0.9352,0.82508 24.51207,10.0918 25.67609,10.0918 0.85524,0 22.22744,-26.93418 46.85647,-59.05059 7.26907,-9.47891 2.81388,0.22831 -34.64524,75.4869703 -3.96555,7.9671496 -7.65024,14.1450901 -8.5,14.2515601 -0.825,0.1033596 -4.425,-1.1872205 -8,-2.8679705 z"
         id="path4" />
    </g>
  </g>
</svg>
